# xmcd
#
# Track frame offsets:
#	150
#	3052
#	21333
#	36247
#	53529
#	70844
#	89284
#	100122
#	117577
#	132677
#	144535
#	156750
#	178414
#
# Disc length: 2583 seconds
#
# Revision: 1
# Processed by: cddbd v1.5.2PL0 Copyright (c) Steve Scherf et al.
# Submitted via: audiograbber 1.83.01
#
DISCID=b10a150d
DTITLE=Mads Toghøj - Alley of Faith
DYEAR=2012
DGENRE=Country
TTITLE0=Intro
TTITLE1=Alley of Faith
TTITLE2=Come and Hold Me
TTITLE3=Bit by Bit
TTITLE4=I'll Be There
TTITLE5=If You Love Me
TTITLE6=Holding on To You
TTITLE7=In My Dreams
TTITLE8=Quiet Morning
TTITLE9=Man About Town
TTITLE10=You
TTITLE11=Thank You For Tomorrow
TTITLE12=So Long Daddy
EXTD=
EXTT0=
EXTT1=
EXTT2=
EXTT3=
EXTT4=
EXTT5=
EXTT6=
EXTT7=
EXTT8=
EXTT9=
EXTT10=
EXTT11=
EXTT12=
PLAYORDER=
